<svg style="display: block; margin: auto;" xmlns="http://www.w3.org/2000/svg" fill="none" viewBox="0 0 385 260" height="600" width="800">
  <defs>
    <linearGradient gradientUnits="userSpaceOnUse" y2="22.1698" x2="35.0249" y1="22.1698" x1="8.68724" id="paint0_linear_313_221">
      <stop stop-color="#AF8FF4"></stop>
      <stop stop-color="#5FBEFF" offset="1"></stop>
    </linearGradient>
    <linearGradient gradientUnits="userSpaceOnUse" y2="13.5992" x2="30.2066" y1="13.5992" x1="0.106189" id="paint1_linear_313_221">
      <stop stop-color="#68D6F9"></stop>
      <stop stop-color="#7EF0B2" offset="1"></stop>
    </linearGradient>
  </defs>
  
  
  <g transform="translate(200, 170)">
    <path fill="url(#paint0_linear_313_221)" d="M33.3099 8.9857L32.5371 7.6357C32.4767 7.53003 32.3927 7.43971 32.2917 7.37177C32.1907 7.30382 32.0754 7.26007 31.9548 7.24393C31.8341 7.22779 31.7114 7.23968 31.5961 7.27869C31.4808 7.31769 31.376 7.38276 31.29 7.46884L29.5247 9.23412C29.3947 9.36419 29.3138 9.53527 29.2957 9.71827C29.2776 9.90126 29.3235 10.0849 29.4256 10.2378C30.0706 11.2228 30.5871 12.2862 30.9625 13.4021V13.4021C31.6638 15.4871 31.8591 17.7091 31.5321 19.8845C31.2052 22.06 30.3655 24.1264 29.0823 25.9133C27.7991 27.7001 26.1093 29.1561 24.1523 30.1609C22.1954 31.1658 20.0275 31.6907 17.8276 31.6923C15.5613 31.6987 13.3287 31.1444 11.3285 30.0788L14.3209 27.0878C15.8196 27.6551 17.4337 27.8502 19.0244 27.6563C20.6152 27.4624 22.1351 26.8853 23.4537 25.9745C24.7723 25.0637 25.8501 23.8466 26.5946 22.4274C27.3391 21.0083 27.7281 19.4297 27.728 17.8272C27.7274 17.4848 27.7085 17.1426 27.6716 16.8022C27.5542 15.6592 27.2383 14.5456 26.7381 13.5112C26.6822 13.3989 26.6005 13.3014 26.4997 13.2267C26.3988 13.152 26.2817 13.1023 26.158 13.0816C26.0342 13.0609 25.9073 13.0699 25.7877 13.1077C25.668 13.1455 25.559 13.2111 25.4697 13.2992L23.678 15.0908C23.5826 15.186 23.5131 15.3039 23.4759 15.4334C23.4388 15.563 23.4354 15.6998 23.466 15.8311L23.6165 16.4747C23.8813 17.6006 23.8115 18.7793 23.4158 19.8661C23.0202 20.953 22.3158 21.9006 21.3891 22.5928C20.4625 23.2849 19.3539 23.6915 18.1995 23.7625C17.045 23.8335 15.895 23.5659 14.8905 22.9926L14.1026 22.5409C13.9518 22.4539 13.7765 22.4191 13.6039 22.4418C13.4313 22.4645 13.271 22.5434 13.1478 22.6664L5.8382 29.9672C5.75846 30.0469 5.69667 30.1426 5.65694 30.2481C5.61721 30.3536 5.60047 30.4664 5.60783 30.5789C5.6152 30.6914 5.6465 30.801 5.69964 30.9004C5.75278 30.9998 5.82654 31.0867 5.91599 31.1553L6.99247 31.9809C10.0967 34.3733 13.9085 35.6653 17.8276 35.6532C27.6565 35.6532 35.6536 27.6561 35.6536 17.8272C35.6545 14.7264 34.8467 11.679 33.3099 8.9857Z"></path>
    <path fill="url(#paint1_linear_313_221)" d="M28.6612 3.67243C25.5574 1.28015 21.746 -0.0117826 17.8273 8.09809e-05C7.99712 8.09809e-05 2.70975e-07 7.9972 2.70975e-07 17.8274C-0.000540141 20.9281 0.807246 23.9755 2.34368 26.6689L3.11654 28.0189C3.17684 28.1258 3.26116 28.2172 3.36286 28.2859C3.46456 28.3547 3.58084 28.3988 3.70253 28.4148C3.82421 28.4309 3.94797 28.4185 4.06401 28.3785C4.18006 28.3385 4.28522 28.2721 4.37119 28.1845L6.13522 26.4204C6.26522 26.2904 6.34613 26.1193 6.3642 25.9363C6.38227 25.7533 6.33638 25.5697 6.23434 25.4167C5.58981 24.4315 5.07334 23.3682 4.6974 22.2525V22.2525C3.99598 20.1678 3.80047 17.9461 4.12702 15.7709C4.45357 13.5957 5.29282 11.5293 6.57546 9.74245C7.85811 7.95557 9.54738 6.49939 11.5038 5.49413C13.4602 4.48887 15.6277 3.96337 17.8273 3.961C20.0931 3.95476 22.3254 4.50904 24.3251 5.57448L21.329 8.56681C19.8303 7.9991 18.2162 7.80373 16.6254 7.99749C15.0346 8.19126 13.5145 8.76836 12.196 9.67921C10.8774 10.5901 9.79965 11.8074 9.05538 13.2267C8.31112 14.646 7.92256 16.2248 7.9231 17.8274C7.9231 17.9917 7.96701 18.742 7.98081 18.8712C8.1019 20.007 8.41767 21.1135 8.91427 22.1421C8.96935 22.2562 9.05091 22.3554 9.15216 22.4315C9.2534 22.5077 9.37139 22.5585 9.49627 22.5797C9.62115 22.601 9.7493 22.592 9.87003 22.5537C9.99075 22.5153 10.1005 22.4486 10.1902 22.3591L11.9819 20.5688C12.0777 20.4729 12.1474 20.354 12.1843 20.2236C12.2212 20.0931 12.2241 19.9554 12.1927 19.8235L12.0446 19.1849C11.9406 18.7398 11.8875 18.2844 11.8865 17.8274C11.8865 16.7875 12.1596 15.7659 12.6785 14.8648C13.1973 13.9637 13.9438 13.2146 14.8431 12.6926C15.7424 12.1706 16.7631 11.894 17.8029 11.8903C18.8427 11.8867 19.8652 12.1563 20.7682 12.672L21.5573 13.1237C21.708 13.2104 21.883 13.245 22.0553 13.2223C22.2277 13.1997 22.3878 13.1209 22.5109 12.9982L29.8154 5.69367C29.8952 5.61387 29.957 5.51798 29.9967 5.41238C30.0365 5.30679 30.0532 5.19393 30.0459 5.08135C30.0385 4.96877 30.0072 4.85906 29.954 4.75954C29.9009 4.66002 29.8271 4.57299 29.7376 4.50426L28.6612 3.67243Z"></path>
  </g>
</svg>
