<?xml version="1.0" encoding="UTF-8"?>
<svg xmlns="http://www.w3.org/2000/svg" width="1024" height="1008" viewBox="0 0 1024 1008" role="img" aria-label="Converted logo">
  <defs>
    <linearGradient id="logoGradient" x1="110" y1="930" x2="880" y2="110" gradientUnits="userSpaceOnUse">
      <stop offset="0%" stop-color="#9D22E4"/>
      <stop offset="32%" stop-color="#5B58E0"/>
      <stop offset="58%" stop-color="#2DB7CA"/>
      <stop offset="78%" stop-color="#17D99A"/>
      <stop offset="100%" stop-color="#238CE8"/>
    </linearGradient>
  </defs>
  <path d="M 845.0 127.0 L 722.0 44.0 L 576.0 0.0 L 434.0 0.0 L 380.0 11.0 L 275.0 51.0 L 171.0 122.0 L 105.0 192.0 L 55.0 270.0 L 20.0 356.0 L 0.0 451.0 L 0.0 553.0 L 14.0 630.0 L 41.0 708.0 L 89.0 795.0 L 120.0 801.0 L 179.0 738.0 L 119.0 586.0 L 114.0 448.0 L 156.0 320.0 L 244.0 209.0 L 336.0 148.0 L 447.0 114.0 L 574.0 116.0 L 685.0 156.0 L 605.0 239.0 L 527.0 223.0 L 427.0 233.0 L 348.0 269.0 L 286.0 325.0 L 243.0 396.0 L 222.0 488.0 L 237.0 596.0 L 253.0 632.0 L 277.0 640.0 L 345.0 574.0 L 340.0 469.0 L 361.0 417.0 L 393.0 379.0 L 439.0 350.0 L 490.0 337.0 L 541.0 340.0 L 611.0 374.0 L 634.0 372.0 L 846.0 161.0 Z" fill="url(#logoGradient)"/>
  <path d="M 923.0 213.0 L 891.0 205.0 L 831.0 269.0 L 890.0 415.0 L 898.0 548.0 L 885.0 612.0 L 850.0 695.0 L 755.0 808.0 L 657.0 868.0 L 549.0 896.0 L 438.0 892.0 L 324.0 852.0 L 406.0 766.0 L 494.0 784.0 L 582.0 774.0 L 656.0 741.0 L 723.0 682.0 L 770.0 601.0 L 788.0 505.0 L 769.0 401.0 L 755.0 373.0 L 734.0 367.0 L 666.0 433.0 L 670.0 543.0 L 651.0 588.0 L 614.0 631.0 L 572.0 657.0 L 521.0 670.0 L 467.0 666.0 L 397.0 632.0 L 377.0 635.0 L 164.0 848.0 L 165.0 875.0 L 218.0 919.0 L 302.0 967.0 L 443.0 1007.0 L 570.0 1007.0 L 651.0 989.0 L 748.0 948.0 L 835.0 887.0 L 901.0 819.0 L 954.0 739.0 L 990.0 653.0 L 1009.0 568.0 L 1013.0 480.0 L 1002.0 396.0 L 972.0 302.0 Z" fill="url(#logoGradient)"/>
</svg>
